# xmcd CD database file
#
# Track frame offsets:
#	150
#	25311
#	48846
#	63618
#	86094
#	107448
#	122227
#	143456
#	160178
#	187732
#
# Disc length: 2877 seconds
#
# Revision: 0
# Processed by: cddbd v1.5.2PL0 Copyright (c) Steve Scherf et al.
# Submitted via: CDex 1.70beta2
#
DISCID=7a0b3b0a
DTITLE=Frimer Band - Blues Uncovered
DYEAR=1900
DGENRE=Blues
TTITLE0=Too Tired
TTITLE1=Aint that the thruth
TTITLE2=Just blame it on me
TTITLE3=While time is running out
TTITLE4=If you only could forgive me
TTITLE5=Tomorrow is a-comin
TTITLE6=Get down
TTITLE7=Feels so good to say
TTITLE8=Cold cold feeling
TTITLE9=Starvations doggin me
EXTD=
EXTT0=
EXTT1=
EXTT2=
EXTT3=
EXTT4=
EXTT5=
EXTT6=
EXTT7=
EXTT8=
EXTT9=
PLAYORDER=
